# xmcd CD database file
#
# Track frame offsets:
#	150
#	20050
#	39882
#	57670
#	75300
#	92425
#	109815
#	128350
#	143910
#	161172
#	176145
#
# Disc length: 2577 seconds
#
# Revision: 0
# Processed by: cddbd v1.5PL3 Copyright (c) Steve Scherf et al.
# Submitted via: CDex 1.51
#
DISCID=880a0f0b
DTITLE=新田恵利 - ERI
DYEAR=1986
DGENRE=Pop
TTITLE0=ピンクのリボン
TTITLE1=星を探して
TTITLE2=13回目の季節
TTITLE3=ロマンスは偶然のしわざ(New Mix)
TTITLE4=ジューンブライド
TTITLE5=五月の恋人
TTITLE6=恋のロープをほどかないで
TTITLE7=大人になんかなりたくない
TTITLE8=そよ風のレター
TTITLE9=駐車禁止のワーゲン
TTITLE10=冬のオペラグラス
EXTD=YEAR: 1986
EXTT0=
EXTT1=
EXTT2=
EXTT3=
EXTT4=
EXTT5=
EXTT6=
EXTT7=
EXTT8=
EXTT9=
EXTT10=
PLAYORDER=
